<?xml version="1.0" encoding="UTF-8"?>
<svg version="1.1" xmlns="http://www.w3.org/2000/svg" width="280" height="518">
<path d="M0 0 C0 0.66 0 1.32 0 2 C-3.3 2 -6.6 2 -10 2 C-8.92878906 2.33773438 -7.85757813 2.67546875 -6.75390625 3.0234375 C-5.35664325 3.47356249 -3.95951469 3.92410496 -2.5625 4.375 C-1.85544922 4.59671875 -1.14839844 4.8184375 -0.41992188 5.046875 C1.4062189 5.64102606 3.20577032 6.31549619 5 7 C5.33 7.66 5.66 8.32 6 9 C5.34 9.33 4.68 9.66 4 10 C4.65484375 10.37769531 5.3096875 10.75539063 5.984375 11.14453125 C12.80569718 15.25852075 18.4744015 19.91432941 24.21484375 25.3671875 C26.50781749 27.53473912 28.83722359 29.59467934 31.25 31.625 C36.23220204 35.9415216 40.81341862 40.85780157 44.58203125 46.2734375 C45.28392578 47.12808594 45.28392578 47.12808594 46 48 C46.78375 47.979375 47.5675 47.95875 48.375 47.9375 C51 48 51 48 53.3828125 49.7578125 C57.33559907 53.9571909 58.70321463 59.58059869 60.5 64.9375 C61.15160607 66.82678597 61.80321432 68.71607119 62.45489502 70.60533142 C63.15666949 72.64826968 63.85124153 74.69355832 64.54492188 76.73925781 C65.76164883 80.31758798 67.00988178 83.88396891 68.26922607 87.44749451 C79.62252725 119.58020613 89.44036655 152.20616811 98.25 185.125 C98.43308716 185.80284546 98.61617432 186.48069092 98.80480957 187.17907715 C100.85473173 194.80738349 102.4832752 202.35159504 103.58837891 210.17333984 C104.08526942 213.58555713 104.78760457 216.89076744 105.5625 220.25 C110.0617495 240.8147515 110.0617495 240.8147515 107 250 C104.20350372 249.66417621 103.1797649 249.20397981 101.2890625 247.05859375 C92.14896232 232.66186319 88.27198771 216.34697724 84.125 200 C83.62319886 198.04927242 83.12059928 196.09875005 82.6171875 194.1484375 C81.40227164 189.43459872 80.19808595 184.71814308 79 180 C79.12528076 180.64098633 79.25056152 181.28197266 79.37963867 181.94238281 C82.14058003 196.10144173 84.80170246 210.27344521 87.29956055 224.48144531 C87.49332275 225.58069336 87.68708496 226.67994141 87.88671875 227.8125 C88.1643103 229.39647583 88.1643103 229.39647583 88.44750977 231.01245117 C88.95004451 233.7298695 89.53243942 236.41625747 90.1328125 239.11328125 C91.22155579 244.48267892 91.25912112 249.72544725 91.1875 255.1875 C91.1865332 256.60579102 91.1865332 256.60579102 91.18554688 258.05273438 C91.15366758 263.13571031 90.8661013 267.99047007 90 273 C86 273 86 273 83.0625 270.3125 C73.58388955 258.17322697 72.03554005 240.6306428 69 226 C69.83960357 235.74942657 70.90083935 245.45896863 72.2109375 255.15625 C72.32051285 255.97016205 72.4300882 256.7840741 72.54298401 257.62265015 C73.09671072 261.72210739 73.65983255 265.82001684 74.23510742 269.91650391 C75.43059604 278.59055175 76.3194279 287.19296145 76.68080139 295.94509888 C76.86699933 300.35855838 77.36480391 304.63170483 78 309 C78.29987998 313.40431351 78.46060796 317.81191784 78.61254883 322.22338867 C78.68695526 324.29731644 78.77788733 326.37011392 78.86914062 328.44335938 C79.15392265 335.8901917 78.98008436 342.77705755 77 350 C73 350 73 350 71.25390625 348.3046875 C57.57196483 328.65072085 55.92215058 302.55056209 52.75 279.4375 C52.61917023 278.49042175 52.48834045 277.54334351 52.35354614 276.56756592 C50.82128465 265.38792478 49.54452615 254.2749585 49 243 C48.77511484 251.72887599 49.39721308 260.35354099 50.11117554 269.0435791 C50.46208283 273.32510555 50.7964606 277.60793473 51.1328125 281.890625 C51.2034642 282.78634216 51.27411591 283.68205933 51.34690857 284.60491943 C52.10152809 294.2094772 52.80653794 303.81740444 53.48690796 313.42749023 C53.61934825 315.29104375 53.75329043 317.1544912 53.88882446 319.01782227 C55.62233839 342.87700818 55.62233839 342.87700818 54.5 350.3125 C54.01593216 353.88250032 54.00391193 357.15269248 54.0625 360.75 C54.10179697 366.88032701 54.02636278 373.14847113 52 379 C51.01 379.66 50.02 380.32 49 381 C40.61643836 372.84931507 40.61643836 372.84931507 39 368 C38.30268244 379.93057603 37.84240428 391.84119714 37.61239624 403.78939819 C36.63526087 451.97621625 36.63526087 451.97621625 31 461 C28.8671875 461.7890625 28.8671875 461.7890625 27 462 C18.89545781 448.13179067 14.54961112 435.29596967 14 419 C13.34 419 12.68 419 12 419 C11.50870897 414.93887652 11.03447895 410.87590944 10.5625 406.8125 C10.42779297 405.70068359 10.29308594 404.58886719 10.15429688 403.44335938 C8.91485505 392.65114641 8.42949167 381.8503623 8 371 C7.73024622 376.60278995 7.46460583 382.20575713 7.20291138 387.80892944 C7.10943576 389.80848677 7.0154228 391.80801905 6.92086792 393.80752563 C6.42547575 404.33612844 5.96319736 414.85988619 5.75 425.3984375 C5.73279404 426.19668442 5.71558807 426.99493134 5.69786072 427.81736755 C5.61929944 431.54276519 5.55603051 435.26738141 5.51782227 438.9934082 C5.41530665 445.42212935 5.036288 451.01950617 2.6706543 457.04272461 C1.55535873 460.29766621 1.65857367 463.52305759 1.625 466.9375 C1.33545523 476.64273364 -0.62382332 487.24764665 -5 496 C-7.25 495.875 -7.25 495.875 -10 495 C-12.125 492.1875 -12.125 492.1875 -14 489 C-14.49113281 488.41476562 -14.98226562 487.82953125 -15.48828125 487.2265625 C-17.45845776 484.32475213 -18.17076787 481.57752621 -19.0625 478.1875 C-19.54396484 476.41439453 -19.54396484 476.41439453 -20.03515625 474.60546875 C-23.19945586 460.53018328 -23.40129152 446.4136321 -23.625 432.0625 C-23.66328113 430.01105298 -23.7023383 427.95962029 -23.7421875 425.90820312 C-23.83705623 420.93892164 -23.92147774 415.96956555 -24 411 C-24.02505615 411.61520508 -24.0501123 412.23041016 -24.07592773 412.86425781 C-24.19218487 415.65970156 -24.31477642 418.45483298 -24.4375 421.25 C-24.47681641 422.21808594 -24.51613281 423.18617188 -24.55664062 424.18359375 C-24.59853516 425.11816406 -24.64042969 426.05273438 -24.68359375 427.015625 C-24.73858032 428.30388184 -24.73858032 428.30388184 -24.79467773 429.61816406 C-24.98703514 431.84960143 -25.38846244 433.84982524 -26 436 C-26.66 436 -27.32 436 -28 436 C-29.88350627 429.37967162 -30.61996805 422.9272013 -31.18359375 416.078125 C-31.28358673 414.92024979 -31.38357971 413.76237457 -31.48660278 412.56941223 C-31.81009658 408.79679884 -32.12377403 405.02343705 -32.4375 401.25 C-32.66041024 398.64116767 -32.88363877 396.03236252 -33.10717773 393.42358398 C-34.14193363 381.21238911 -35.10496646 369.00195018 -35.8515625 356.76953125 C-35.91430862 355.76008453 -35.97705475 354.75063782 -36.04170227 353.71060181 C-36.33011279 349.0315899 -36.59963662 344.35284302 -36.83569336 339.67089844 C-37.11124633 325.87869342 -37.11124633 325.87869342 -43 314 C-43.474375 314.495 -43.94875 314.99 -44.4375 315.5 C-46 317 -46 317 -47 317 C-47.92333975 313.07878604 -48.12888719 309.43444186 -48.1328125 305.41015625 C-48.13479141 304.44230949 -48.13479141 304.44230949 -48.1368103 303.45491028 C-48.13873692 301.32405926 -48.13234547 299.19333793 -48.125 297.0625 C-48.12367065 295.96557831 -48.12367065 295.96557831 -48.12231445 294.84649658 C-48.09660845 276.55717059 -47.5690492 258.27919209 -47 240 C-47.886242 248.91370964 -48.23913079 257.80994336 -48.44555664 266.75930214 C-48.50129414 269.16923632 -48.56161794 271.57901985 -48.62304688 273.98881531 C-48.77452502 279.96416415 -48.91900732 285.93967685 -49.0625 291.91522217 C-49.18452451 296.99079823 -49.30981875 302.06627167 -49.43969727 307.14165306 C-49.49885708 309.50512106 -49.55321626 311.86866802 -49.60742188 314.23225403 C-49.64428151 315.68910343 -49.68137838 317.14594685 -49.71875 318.6027832 C-49.74904297 319.86564651 -49.77933594 321.12850983 -49.81054688 322.42964172 C-50.00020098 326.00378763 -50.46316381 329.46343182 -51 333 C-50.99510455 334.37562246 -50.95838673 335.75189849 -50.875 337.125 C-50.7684819 343.27109453 -52.46547383 349.09024744 -54 355 C-58 355 -58 355 -59.59765625 353.56640625 C-68.80277928 340.97379794 -69.26500187 325.838069 -70 310.75 C-70.46820501 301.2349365 -71.1883086 291.90210458 -72.53613281 282.46484375 C-72.95710514 279.32040205 -73.26300379 276.20244335 -73.4921875 273.0390625 C-73.55792969 272.13542969 -73.62367187 271.23179687 -73.69140625 270.30078125 C-73.81536773 268.4941086 -73.92971986 266.68675461 -74.03515625 264.87890625 C-74.46215789 259.27954513 -75.56982253 254.95251075 -78.14013672 249.94311523 C-79.33041084 247.25333904 -79.29661218 244.89196878 -79 242 C-80.65 242.99 -82.3 243.98 -84 245 C-84.495 242.525 -84.495 242.525 -85 240 C-85.09796875 240.62003906 -85.1959375 241.24007812 -85.296875 241.87890625 C-87.16798026 252.96036585 -89.37928114 264.163742 -95 274 C-95.66 274 -96.32 274 -97 274 C-101.32794584 266.87983103 -102.19578609 261.44790662 -102.1875 253.1875 C-102.18669434 252.33857178 -102.18588867 251.48964355 -102.18505859 250.61499023 C-102.12382078 244.20363166 -101.47844819 238.01209231 -100.5625 231.6640625 C-99.75857956 225.6156476 -99.49723771 219.52434419 -99.125 213.4375 C-98.484915 203.36880788 -97.27307523 193.60288088 -95.39331055 183.69384766 C-94.26789145 177.74285622 -93.60411117 171.93645943 -93.28125 165.8828125 C-92.78429738 160.78904812 -91.406322 155.90885983 -90 151 C-90.47308594 152.08796875 -90.94617188 153.1759375 -91.43359375 154.296875 C-95.60245317 163.64642188 -99.96981875 172.43015753 -107 180 C-107.66 180 -108.32 180 -109 180 C-110.81148954 171.10723318 -108.06473252 164.65527035 -104.7890625 156.40625 C-101.33467146 147.45198848 -98.43874924 138.32110542 -95.5 129.1875 C-94.9391105 127.45497825 -94.37791398 125.72255586 -93.81640625 123.99023438 C-90.47980526 113.68006414 -87.20953892 103.35040078 -84 93 C-85.485 92.505 -85.485 92.505 -87 92 C-85.35 89.03 -83.7 86.06 -82 83 C-82.62648438 83.42152344 -83.25296875 83.84304687 -83.8984375 84.27734375 C-84.71570313 84.82519531 -85.53296875 85.37304688 -86.375 85.9375 C-87.18710938 86.48277344 -87.99921875 87.02804688 -88.8359375 87.58984375 C-92.47493167 89.96110169 -94.65707031 90.09441152 -99 90 C-97.23952197 86.36901406 -95.14276534 84.18842307 -92.0625 81.6875 C-87.51072972 77.81472308 -84.3902267 73.80471029 -83.765625 67.71484375 C-83.75217525 65.80834193 -83.86416399 63.90170415 -84 62 C-84.78375 62.825 -85.5675 63.65 -86.375 64.5 C-89 67 -89 67 -91 67 C-90.58082718 64.48496307 -90.22021364 62.38929153 -88.95703125 60.15625 C-87.0851375 55.93875878 -88.04229787 51.39451928 -89 47 C-90.78070531 43.13350351 -92.99695951 40.00304049 -96 37 C-98.45393819 36.72100476 -98.45393819 36.72100476 -101.3359375 36.8046875 C-102.45049316 36.81129395 -103.56504883 36.81790039 -104.71337891 36.82470703 C-105.92171387 36.84130371 -107.13004883 36.85790039 -108.375 36.875 C-110.22810791 36.88635986 -110.22810791 36.88635986 -112.11865234 36.89794922 C-116.07921973 36.92246201 -120.03957505 36.95930906 -124 37 C-129.20829361 37.05351202 -134.41652726 37.09307119 -139.625 37.125 C-140.83333496 37.14159668 -142.04166992 37.15819336 -143.28662109 37.17529297 C-144.40117676 37.18189941 -145.51573242 37.18850586 -146.6640625 37.1953125 C-147.64842285 37.20578613 -148.6327832 37.21625977 -149.64697266 37.22705078 C-152 37 -152 37 -154 35 C-139.61584779 18.33466065 -121.2384751 10.95617851 -99.66796875 8.39453125 C-97.08467573 8.28336239 -97.08467573 8.28336239 -96 7 C-94.15108054 6.76636119 -92.29511969 6.58696365 -90.4375 6.4375 C-89.42558594 6.35371094 -88.41367188 6.26992188 -87.37109375 6.18359375 C-86.58863281 6.12300781 -85.80617188 6.06242187 -85 6 C-84.01 3.03 -83.02 0.06 -82 -3 C-56.02810624 -8.64606386 -25.36955787 -8.25812588 0 0 Z " fill="#030303" transform="translate(164,12)"/>
<path d="M0 0 C2.475 1.485 2.475 1.485 5 3 C3.4356518 6.83976377 1.08848297 9.27064296 -2 12 C-2.886875 12.33 -3.77375 12.66 -4.6875 13 C-7.26117134 13.81856681 -7.26117134 13.81856681 -8.3125 16.625 C-8.539375 17.40875 -8.76625 18.1925 -9 19 C-13 14.25 -13 14.25 -13 12 C-15.97 12 -18.94 12 -22 12 C-22 11.67 -22 11.34 -22 11 C-19.94921875 10.77213542 -17.8984375 10.54427083 -15.84765625 10.31640625 C-13.98859771 10.18113386 -13.98859771 10.18113386 -13 9 C-11.15108054 8.76636119 -9.29511969 8.58696365 -7.4375 8.4375 C-6.42558594 8.35371094 -5.41367188 8.26992188 -4.37109375 8.18359375 C-3.58863281 8.12300781 -2.80617188 8.06242187 -2 8 C-1.34 5.36 -0.68 2.72 0 0 Z " fill="#232323" transform="translate(81,10)"/>
<path d="M0 0 C-2.97231077 2.97231077 -6.7099465 3.30106993 -10.6875 4.25 C-18.53128842 6.19321027 -25.7926303 8.72745737 -33.19140625 11.9609375 C-34.11824219 12.30382813 -35.04507813 12.64671875 -36 13 C-36.66 12.67 -37.32 12.34 -38 12 C-25.91487276 5.63564305 -13.96147697 -0.27375445 0 0 Z " fill="#D0D0D0" transform="translate(60,30)"/>
<path d="M0 0 C0.66 0 1.32 0 2 0 C1.88155392 4.62663327 1.75729228 9.25306042 1.62768555 13.87939453 C1.58442662 15.45259374 1.54274526 17.02583717 1.50268555 18.59912109 C1.44476338 20.86309115 1.38113286 23.12684051 1.31640625 25.390625 C1.29969376 26.09181458 1.28298126 26.79300415 1.26576233 27.51544189 C1.16648978 30.80233821 0.99187328 33.85142005 0 37 C-0.66 37 -1.32 37 -2 37 C-2.33 35.35 -2.66 33.7 -3 32 C-2.01 32 -1.02 32 0 32 C0 21.44 0 10.88 0 0 Z " fill="#393939" transform="translate(138,411)"/>
<path d="M0 0 C4.41974979 2.74776233 7.83292429 5.6281815 11.375 9.5 C12.68597656 10.90765625 12.68597656 10.90765625 14.0234375 12.34375 C16 15 16 15 16 19 C15.34 19 14.68 19 14 19 C12.6328125 17.171875 12.6328125 17.171875 11.125 14.75 C8.99776525 11.42880261 6.84973615 8.74013091 4 6 C4 5.34 4 4.68 4 4 C2.68 3.34 1.36 2.68 0 2 C0 1.34 0 0.68 0 0 Z " fill="#CDCDCD" transform="translate(187,47)"/>
<path d="M0 0 C1.6045556 0.14148989 3.20863767 0.28835686 4.8125 0.4375 C5.70582031 0.51871094 6.59914062 0.59992187 7.51953125 0.68359375 C10 1 10 1 13 2 C13 2.66 13 3.32 13 4 C8.38 4 3.76 4 -1 4 C-0.67 2.68 -0.34 1.36 0 0 Z " fill="#383838" transform="translate(151,10)"/>
<path d="M0 0 C0.66 0 1.32 0 2 0 C2 2.31 2 4.62 2 7 C0.68 7 -0.64 7 -2 7 C-3.75 5 -3.75 5 -5 3 C-4.360625 2.690625 -3.72125 2.38125 -3.0625 2.0625 C-1.06389179 1.1654837 -1.06389179 1.1654837 0 0 Z " fill="#1D1D1D" transform="translate(252,278)"/>
<path d="M0 0 C-2.57833439 2.57833439 -5.10325781 3.3761471 -8.5 4.6875 C-9.6653125 5.14511719 -10.830625 5.60273437 -12.03125 6.07421875 C-15 7 -15 7 -17 6 C-14.73495035 4.80015203 -12.46410112 3.61505231 -10.1875 2.4375 C-9.54490234 2.09525391 -8.90230469 1.75300781 -8.24023438 1.40039062 C-3.33984375 -1.11328125 -3.33984375 -1.11328125 0 0 Z " fill="#B5B5B5" transform="translate(39,36)"/>
<path d="M0 0 C3.93673644 1.31224548 6.22719294 2.91910327 9 6 C7.35 6.33 5.7 6.66 4 7 C0 2.25 0 2.25 0 0 Z " fill="#292929" transform="translate(171,25)"/>
<path d="M0 0 C2.00720923 0.28674418 4.0085944 0.61866701 6 1 C5.67 2.32 5.34 3.64 5 5 C3.35 5 1.7 5 0 5 C-0.5625 3.0625 -0.5625 3.0625 -1 1 C-0.67 0.67 -0.34 0.34 0 0 Z " fill="#AFAFAF" transform="translate(103,21)"/>
<path d="M0 0 C1.65 0.99 3.3 1.98 5 3 C4.25 4.9375 4.25 4.9375 3 7 C0.875 7.75 0.875 7.75 -1 8 C-0.67 5.36 -0.34 2.72 0 0 Z " fill="#161616" transform="translate(81,10)"/>
<path d="M0 0 C0 0.99 0 1.98 0 3 C0.66 3 1.32 3 2 3 C2.66 3.33 3.32 3.66 4 4 C1 6 1 6 -2 6 C-2 6.66 -2 7.32 -2 8 C-3.32 7.34 -4.64 6.68 -6 6 C-4.02 4.02 -2.04 2.04 0 0 Z " fill="#4A4A4A" transform="translate(16,41)"/>
<path d="M0 0 C3.72114571 2.31537955 6.61229661 4.28579473 9 8 C8.01 8 7.02 8 6 8 C5.7525 7.38125 5.505 6.7625 5.25 6.125 C3.79371361 3.64931313 2.62187494 3.04874998 0 2 C0 1.34 0 0.68 0 0 Z " fill="#7E7E7E" transform="translate(187,47)"/>
<path d="M0 0 C0.66 0.33 1.32 0.66 2 1 C1.74438677 3.3431213 1.40729228 5.67843403 1 8 C0.01 8.495 0.01 8.495 -1 9 C-0.67 6.03 -0.34 3.06 0 0 Z " fill="#191919" transform="translate(82,225)"/>
</svg>
